<svg width="24" height="24" viewBox="0 0 24 24" fill="none" xmlns="http://www.w3.org/2000/svg">
<path d="M12 24C18.6274 24 24 18.6274 24 12C24 5.37258 18.6274 0 12 0C5.37258 0 0 5.37258 0 12C0 18.6274 5.37258 24 12 24Z" fill="#5CB6A3"/>
<path fill-rule="evenodd" clip-rule="evenodd" d="M17.7273 7.24416L10.1586 14.9878L6.39032 11.1329C6.07213 10.8074 5.55683 10.8074 5.23864 11.1329C4.92045 11.4585 4.92045 11.9857 5.23864 12.3112L9.58253 16.7556C9.74163 16.9183 9.95014 17 10.1586 17C10.3666 17 10.5751 16.9183 10.7342 16.7556L18.879 8.42246C19.1972 8.09691 19.1972 7.56971 18.879 7.24416C18.5608 6.91861 18.0455 6.91861 17.7273 7.24416Z" fill="white"/>
</svg>
