<svg width="860" height="592" viewBox="0 0 860 592" fill="none" xmlns="http://www.w3.org/2000/svg">
<g clip-path="url(#clip0)">
<path fill-rule="evenodd" clip-rule="evenodd" d="M192.838 -46.6027C192.569 -46.7808 192.413 -47.186 192.338 -47.7137C192.097 -49.4301 192.72 -52.4468 193.154 -53.2093C194.2 -52.1484 193.371 -48.1778 192.838 -46.6027ZM181.889 -44.8373C181.873 -44.9275 181.858 -45.0192 181.845 -45.1122C181.743 -45.8369 181.734 -46.7174 181.902 -47.904C182.466 -47.8328 182.802 -47.3931 183.034 -46.7686C182.878 -45.2814 182.496 -44.6358 181.889 -44.8373ZM219.501 -5.01454C220.57 -5.24051 220.102 0.278469 219.15 -0.874748C218.985 -2.89177 219.267 -2.87507 219.501 -5.01454ZM176.121 -17.3949C175.559 -17.7456 175.138 -18.8498 174.952 -20.1778C174.753 -21.5893 174.818 -23.2556 175.255 -24.5391C175.745 -22.6801 176.696 -19.4175 176.121 -17.3949ZM223.862 4.33699C223.829 4.18914 223.801 4.03547 223.777 3.87726C223.669 3.11365 223.963 3.37301 224.062 1.97824C225.013 1.9248 224.733 5.22306 223.862 4.33699ZM163.432 -18.2598C162.704 -18.409 162.322 -19.1392 162.165 -20.2502C162.033 -21.1852 162.061 -22.3896 162.177 -23.7432C163.309 -23.1143 163.561 -21.0104 163.432 -18.261V-18.2598ZM222.151 15.8324C222.005 15.529 221.896 15.1331 221.835 14.6881C221.416 11.7049 222.791 6.27943 223.898 6.8104C225.753 7.69201 225.584 18.8457 222.151 15.8324ZM184.673 -2.45654C184.426 -3.17006 184.081 -4.22754 183.919 -5.37965C183.76 -6.50504 183.776 -7.72059 184.228 -8.79255C184.885 -7.66827 184.965 -3.57636 184.673 -2.45654ZM166.037 -8.48643C165.209 -9.36359 164.817 -10.292 164.698 -11.1335C164.529 -12.3413 164.924 -13.3709 165.402 -13.8162C166.245 -14.6032 167.344 -13.5691 166.037 -8.48643ZM191.189 21.9881C188.554 22.4245 186.686 18.3871 185.992 13.4559C185.601 10.6741 185.583 7.60852 186.012 4.90136C187.278 -3.09548 191.147 -3.10104 194.226 0.665836C195.514 5.9978 195.764 9.41182 194.813 16.8877C193.25 18.0064 192.574 21.7599 191.189 21.9881ZM212.955 17.1682C212.861 16.9645 212.79 16.6695 212.74 16.3111C212.479 14.4633 212.759 10.939 213.083 9.86598C213.766 9.72906 213.46 11.2552 213.929 11.4778C213.175 13.4737 213.49 15.1813 212.955 17.1671V17.1682ZM198.329 4.37817C199.13 5.72953 198.684 11.3487 197.492 11.3598C197.637 8.51908 197.986 6.46421 198.329 4.37706V4.37817ZM227.624 26.6589C227.139 25.8118 226.654 24.9636 226.465 23.6167C226.45 23.5124 226.437 23.4065 226.426 23.2994C228.114 24.3369 229.36 26.119 229.569 29.641C229.353 29.8714 229.133 30.0863 228.81 29.9126C228.643 28.4421 228.133 27.5494 227.624 26.6589H227.624ZM173.456 45.8272C172.411 43.8414 171.296 41.6641 170.912 38.9358C170.716 37.5432 170.711 36.0071 171.001 34.2784C171.935 28.6959 175.177 30.4046 176.013 35.9447C175.672 41.1576 174.24 42.273 173.456 45.8272ZM141.069 22.489C140.614 22.6627 140.13 22.6905 140.001 21.7733C139.949 21.4082 139.954 20.8939 140.04 20.1804C140.726 20.3718 141.336 20.6947 141.069 22.489ZM204.411 51.3251C203.909 51.4943 203.272 51.6501 203.115 50.5325C203.077 50.2665 203.067 49.9269 203.092 49.4995C203.528 48.7537 204.802 49.1834 204.411 51.3251ZM229.699 62.8383C229.367 62.4765 228.641 62.7749 228.536 62.0291C228.507 61.8187 228.526 61.5293 228.616 61.1207C229.224 61.0005 229.933 60.4785 229.699 62.8383ZM237.669 70.1472C237.66 70.0966 237.653 70.0454 237.645 69.9936C237.396 68.2159 237.819 66.8957 238.353 66.3559C238.885 65.8171 239.527 66.0553 239.718 67.3911L239.721 67.4156C239.802 68.0022 239.797 68.7981 239.66 69.8289C239.192 70.6693 238.548 70.8507 237.669 70.1472ZM204.266 61.694C203.815 61.6573 203.544 61.3155 203.453 60.6699C203.39 60.2247 203.413 59.6347 203.521 58.9C204.284 58.9635 204.533 59.8952 204.266 61.694H204.266ZM210.217 75.4514C209.891 75.3957 209.713 75.0896 209.645 74.6031C209.579 74.1356 209.612 73.5033 209.709 72.7642C209.945 72.8689 210.182 72.9768 210.417 73.0837C210.351 73.874 210.284 74.6599 210.217 75.4514ZM216.67 83.2946C216.354 83.1499 216.039 83.0074 215.724 82.8649C215.729 81.5848 216.02 81.3733 216.162 80.6086C216.799 80.7143 216.869 81.784 216.67 83.2946ZM228.609 93.0279C229.639 94.2067 228.764 97.0419 227.935 95.1707L228.085 93.4019C228.352 93.6223 228.517 93.4643 228.609 93.0279ZM216.275 96.6189C215.715 96.2738 215.214 95.8342 215.068 94.7967C215.003 94.3359 215.008 93.757 215.109 93.0157C215.525 92.3077 216.729 92.852 217 93.8784C217.04 95.8575 216.472 95.537 216.275 96.6189ZM218.861 100.863C218.439 101.62 217.607 100.83 216.92 100.591C217.117 97.3892 218.719 95.7874 219.298 98.6037C219.069 99.05 218.932 99.8237 218.861 100.863Z" fill="#D2DCE8" fill-opacity="0.4"/>
<path fill-rule="evenodd" clip-rule="evenodd" d="M811.271 258.549C811.533 258.305 811.756 258.409 811.943 258.73C812.551 259.77 812.771 263.108 812.603 264.348C811.502 264.993 811.22 260.59 811.272 258.549H811.271ZM819.706 241.374C819.74 241.423 819.775 241.477 819.808 241.534C820.064 241.973 820.283 242.672 820.432 243.875C819.958 244.629 819.582 244.755 819.243 244.584C819.012 243.157 819.166 242.086 819.706 241.374H819.706ZM779.71 263.248C778.9 264.968 777.952 259.83 778.999 259.395C779.617 260.79 779.386 261.18 779.71 263.247L779.71 263.248ZM817.78 210.879C818.319 210.353 818.924 210.643 819.394 211.449C819.894 212.305 820.241 213.746 820.196 215.413C819.353 214.614 817.8 213.342 817.78 210.879H817.78ZM773.935 261.954C774.013 262.048 774.072 262.129 774.115 262.204C774.385 262.667 774.085 262.879 774.341 264.149C773.584 265.561 773.018 262.491 773.935 261.954ZM828.253 193.33C828.878 192.403 829.363 192.444 829.756 193.119C830.087 193.685 830.354 194.699 830.585 195.963C829.519 197.08 828.809 195.74 828.253 193.33ZM772.558 250.193C772.754 250.226 772.93 250.395 773.088 250.666C774.144 252.475 774.335 258.842 773.312 260.005C771.599 261.959 769.056 252.694 772.558 250.193ZM807.272 211.092C807.643 211.314 808.177 211.672 808.585 212.373C808.983 213.055 809.262 214.061 809.153 215.578C808.353 215.612 807.305 212.418 807.272 211.092H807.272ZM823.797 189.17C824.678 188.689 825.218 188.876 825.516 189.386C825.943 190.121 825.871 191.52 825.591 192.569C825.099 194.416 823.96 195.162 823.797 189.17ZM796.127 200.687C798.154 196.544 800.635 197.125 802.381 200.117C803.366 201.804 804.117 204.259 804.42 207.065C805.318 215.355 802.189 220.924 798.793 222.304C796.47 219.843 795.447 217.442 794.421 210.025C795.417 206.871 795.062 202.863 796.127 200.687ZM779.676 235.89C779.802 235.918 779.929 236.055 780.056 236.272C780.711 237.394 781.332 240.646 781.327 241.981C780.807 243.073 780.689 241.397 780.256 241.892C780.386 239.194 779.721 238.265 779.676 235.89ZM794.582 225.203C793.609 225.261 792.62 220.073 793.581 218.35C794.147 220.856 794.358 223.021 794.582 225.203ZM765.528 249.307C766.124 249.296 766.72 249.283 767.198 250.1C767.234 250.163 767.27 250.23 767.305 250.301C765.69 251.89 764.255 252.24 763.239 249.691C763.359 249.192 763.484 248.703 763.788 248.379C764.275 249.33 764.902 249.319 765.528 249.307ZM804.746 155.898C806.069 156.003 807.494 156.16 808.461 157.815C808.953 158.661 809.327 159.896 809.507 161.711C810.093 167.571 807.06 170.85 805.052 167.571C804.076 162.862 804.966 159.901 804.746 155.898ZM836.555 128.203C836.881 127.41 837.267 126.689 837.591 127.246C837.72 127.467 837.84 127.89 837.943 128.592C837.341 129.423 836.77 130.039 836.555 128.202V128.203ZM778.383 195.968C778.748 195.109 779.226 194.067 779.622 194.744C779.716 194.906 779.806 195.167 779.888 195.549C779.715 196.78 778.581 198.262 778.383 195.968H778.383ZM755.159 223.02C755.514 222.836 756.03 221.55 756.294 222.004C756.368 222.13 756.422 222.393 756.447 222.852C755.984 223.824 755.536 225.267 755.159 223.019V223.02ZM746.955 228.57C746.974 228.599 746.993 228.629 747.011 228.659C747.64 229.739 747.614 231.416 747.313 232.621C747.011 233.821 746.435 234.552 745.96 233.745L745.951 233.73C745.744 233.372 745.557 232.721 745.42 231.689C745.597 230.338 746.075 229.262 746.955 228.57ZM776.009 187.37C776.383 186.751 776.685 186.638 776.913 187.03C777.071 187.299 777.194 187.809 777.283 188.559C776.65 189.605 776.225 189.21 776.009 187.37ZM767.89 184.799C768.167 184.375 768.384 184.367 768.556 184.663C768.721 184.946 768.847 185.506 768.946 186.243C768.73 186.498 768.512 186.75 768.297 187.002C768.16 186.268 768.025 185.533 767.89 184.798V184.799ZM760.785 187.734L761.654 186.721C761.957 187.764 761.772 188.352 761.841 189.177C761.3 190.007 760.986 189.243 760.785 187.734ZM748.787 197.029C747.671 197.558 747.698 194.005 748.818 194.325L749.122 195.973C748.852 196.179 748.757 196.545 748.787 197.03V197.029ZM757.903 176.386C758.439 175.859 758.95 175.495 759.317 176.125C759.481 176.404 759.616 176.879 759.713 177.624C759.546 178.795 758.441 180.086 757.975 179.646C757.467 178.103 758.004 177.546 757.903 176.386ZM754.791 176.672C754.95 175.451 755.814 174.895 756.427 174.1C757.037 176.973 756.126 180.573 754.981 179.127C755.059 178.437 754.984 177.615 754.792 176.672H754.791Z" fill="#1694FF" fill-opacity="0.48"/>
<path fill-rule="evenodd" clip-rule="evenodd" d="M798.087 -63.7864C868.634 -17.5998 939.214 26.7657 1009.63 71.6355C1027.38 82.9606 1018.58 184.912 1000.18 176.611C963.811 160.214 927.891 137.784 892.493 110.974C857.093 84.1628 789.232 96.3373 754.845 62.4008C720.454 28.4611 719.538 -51.5863 686.005 -89.4388C652.471 -127.3 619.299 -166.299 586.28 -205.005C585.467 -205.945 586.189 -210.5 587.049 -209.872C657.044 -157.955 727.55 -109.97 798.087 -63.7864Z" fill="#E5ECF4"/>
<path opacity="0.32" fill-rule="evenodd" clip-rule="evenodd" d="M928.924 -302.447C928.524 -294.093 926.135 -294.338 924.53 -291.188C923.262 -293.277 922.038 -295.405 920.754 -297.48C920.983 -301.203 920.59 -304.092 921.026 -308.09C923.051 -311.767 927.894 -307.7 928.924 -302.447ZM944.308 -285.105C943.513 -280.719 941.758 -280.626 939.565 -282.52C939.951 -288.74 942.105 -287.032 944.308 -285.105ZM932.757 -280.565C930.935 -281.75 929.105 -282.914 928.695 -286.153C929.764 -298.54 934.649 -290.375 932.757 -280.565ZM936.134 -289.092C937.708 -288.146 937.674 -281.944 936.521 -279.984C934.041 -280.456 935.307 -286.34 936.134 -289.092ZM879.218 -315.997C881.005 -313.544 881.093 -308.764 880.56 -303.17C879.845 -307.072 878.19 -309.729 879.218 -315.997ZM900.851 -279.328C902.529 -276.646 903.738 -273.354 902.81 -267.414C900.533 -269.111 899.455 -276.317 900.851 -279.328ZM880.851 -278.755C879.093 -280.146 878.698 -286.898 880.531 -287.857C881.962 -286.505 881.197 -282.345 880.851 -278.755ZM869.503 -289.183C870.01 -287.217 869.388 -283.87 869.015 -280.826C866.648 -281.82 865.921 -284.789 866.84 -289.808C867.54 -290.356 868.378 -290.365 869.503 -289.183ZM880.675 -277.078C882.785 -275.292 883.866 -272.06 882.742 -265.832C882.064 -264.936 881.017 -265.728 879.933 -266.673C879.561 -269.309 879.324 -274.954 880.675 -277.078ZM964.818 -209.566C964.429 -203.848 963.222 -202.079 961.207 -204.292C960.114 -210.303 963.533 -215.283 964.818 -209.567V-209.566ZM826.872 -304.367C826.67 -300.749 825.605 -301.482 824.473 -302.602C824.594 -303.706 824.722 -304.826 824.847 -305.93C825.542 -306.943 826.502 -306.203 826.872 -304.367ZM803.133 -320C804.542 -318.681 804.326 -312.799 803.035 -311.041C801.885 -311.453 801.222 -312.456 800.776 -313.697C801.063 -317.786 802.34 -317.938 803.133 -320ZM871.445 -261.532C871.228 -259.734 871.007 -257.939 870.793 -256.136C869.64 -254.813 866.717 -255.337 865.692 -258.59C864.342 -270.461 870.899 -270.526 871.445 -261.532H871.445ZM844.639 -273.227C844.388 -271.174 844.138 -269.143 843.895 -267.093C841.6 -264.14 837.639 -270.153 837.896 -275.809C838.888 -282.568 843.908 -278.195 844.639 -273.227ZM865.222 -247.324C866.083 -238.104 867.572 -229.88 868.413 -220.596C863.888 -219.663 863.709 -238.601 865.222 -247.323V-247.324ZM977.402 -135.368C978.61 -132.654 978.713 -128.66 977.244 -126.43C975.256 -127.562 976.015 -134.28 977.402 -135.368ZM836.461 -234.911C836.15 -231.224 835.314 -229.949 834.056 -230.675C834.363 -234.346 835.207 -235.629 836.461 -234.911ZM825.98 -233.161C827.946 -231.725 830.086 -230.525 831.268 -227.965C831.214 -224.146 831.587 -217.449 830.228 -214.839C827.902 -219.659 825.912 -224.969 825.98 -233.161ZM801.29 -219.801C801.142 -229.846 797.16 -234.436 796.911 -244.33C799.308 -246.557 799.426 -238.695 801.387 -237.258C802.949 -239.825 804.388 -250.856 806.577 -244.635C805.388 -233.61 803.806 -224.452 801.29 -219.8L801.29 -219.801ZM973.543 -100.735C970.894 -99.1053 969.503 -105.778 969.518 -110.486C970.867 -110.433 974.062 -106.111 973.543 -100.735ZM1011.14 -60.4703C1009.99 -53.9117 1004.28 -55.2808 1005.46 -64.6001C1007.6 -64.6925 1009.98 -64.0402 1011.14 -60.4703ZM797.202 -207.762C799.357 -205.742 797.649 -198.051 797.751 -193.006C794.606 -193.242 795.93 -203.99 797.202 -207.762ZM969.068 -77.2688C969.507 -76.9548 969.946 -76.6243 970.382 -76.3115C970.169 -73.316 969.664 -71.6463 968.544 -72.824C968.721 -74.2978 968.893 -75.7783 969.068 -77.2688ZM773.781 -192.312C772.2 -194.613 767.385 -195.047 768.476 -202.882C771.136 -203.231 774.232 -198.501 773.781 -192.312ZM783.75 -178.298C781.145 -180.808 779.262 -184.273 779.788 -191.015C782.803 -199.36 788.002 -184.469 783.749 -178.298H783.75ZM963.347 -20.5151C962.414 -19.8539 960.693 -18.7229 960.004 -21.8664C960.368 -30.7415 965.345 -30.7527 963.347 -20.5151ZM988.478 10.3513C990.39 12.3795 989.65 17.1359 988.413 19.321C987.281 17.9073 987.246 12.2804 988.478 10.3513ZM1005.81 41.6808C1004.22 34.9796 1002.26 41.3468 999.285 37.8872C999.363 35.4561 998.704 34.1593 999.105 31.1894C1002.46 31.6981 1005.99 29.9393 1005.81 41.6808ZM991.878 36.8441C991.08 37.5565 990.524 39.3376 989.845 40.5843C988.451 39.1038 987.685 36.7607 987.494 33.645C988.348 25.7161 992.704 29.749 991.878 36.8441ZM749.799 -142.099C748.17 -142.873 747.483 -141.974 746.286 -144.695C746.596 -150.294 750.278 -145.723 749.799 -142.099ZM754.516 -141.207C753.794 -137.273 755.338 -137.659 754.62 -133.731C752.875 -134.796 752.186 -137.908 751.458 -140.937C752.249 -142.527 753.301 -142.426 754.516 -141.207ZM770.472 -118.95C770.463 -115.729 769.18 -117.444 768.889 -115.308C767.609 -116.303 767.117 -118.22 767.407 -121.01C768.64 -120.531 769.786 -121.697 770.473 -118.95H770.472ZM974.585 40.4407C975.831 41.1398 976.929 42.0559 976.331 45.3697C975.255 46.9326 973.582 44.5816 974.584 40.4407H974.585ZM729.953 -136.624C729.963 -134.077 730.121 -129.811 728.896 -128.428C727.102 -128.748 726.983 -130.959 726.235 -132.45C726.581 -137.27 727.819 -138.654 729.953 -136.624ZM959.486 35.6197C962.571 45.6558 969.163 50.7807 969.363 64.8698C965.783 56.4667 960.998 49.7299 957.389 41.3624C958.074 39.3922 958.797 37.6111 959.486 35.6186V35.6197ZM988.565 84.6348C986.84 82.5254 985.219 80.2935 984.406 77.042C986.436 72.5917 988.363 81.0694 988.565 84.6337V84.6348ZM986.93 110.904C982.67 110.721 978.79 101.955 978.316 92.9021C981.47 87.8551 986.988 101.727 986.93 110.904ZM758.408 -66.8464C763.074 -62.287 762.039 -50.0301 763.656 -41.3365C762.144 -36.8249 760.198 -34.2702 758.177 -32.0784C754.482 -38.7628 752.591 -61.3374 758.408 -66.8464ZM916.04 75.6428C917.747 76.3741 917.828 79.4253 918.698 81.351C917.052 91.4573 919.763 99.9405 916.977 108.564C913.632 101.922 917.002 85.6823 916.04 75.6428H916.04ZM934.661 90.4588C935.088 90.7872 935.516 91.1 935.943 91.4306C936.282 93.1348 935.967 95.7751 935.593 98.5435C933.267 98.7194 933.366 92.606 934.661 90.4577V90.4588ZM740.874 -36.4208C741.313 -36.1158 741.753 -35.8119 742.192 -35.4924C741.918 -32.4502 741.552 -29.7564 740.24 -31.2313C739.843 -32.9901 740.146 -35.4824 740.874 -36.4208ZM764.002 -10.8385C764.14 -5.60785 764.231 -4.05167 762.84 -0.439514C760.951 -1.03616 760.78 -4.29767 760.46 -7.33545C761.042 -11.6166 762.235 -12.7375 764.002 -10.8385ZM730.7 -34.2513C731.141 -33.9352 731.58 -33.6313 732.022 -33.3263C731.596 -32.0217 731.886 -27.7572 730.958 -28.5921C729.354 -28.5921 730.661 -32.2209 730.7 -34.2513ZM927.937 119.819C927.298 123.513 926.265 125.113 924.847 124.639C923.7 118.766 926.953 114.467 927.937 119.819ZM907.923 143.574C904.316 145.031 904.752 134.415 901.681 132.272C903.902 125.455 908.242 136.518 907.923 143.572V143.574ZM801.016 88.4195C797.054 97.7287 790.559 95.4445 785.885 101.523C785.565 104.128 786.258 105.359 785.541 108.533C784.258 109.546 783.515 112.992 781.755 111.806C784.797 99.9884 788.089 89.3267 793.666 89.0695C791.748 73.6592 800.406 79.9941 801.016 88.4195ZM731.284 36.2954C731.978 38.4927 733.072 40.1947 732.366 44.1275C731.209 46.2168 729.206 44.6918 727.991 42.2273C728.567 38.0731 730.053 37.748 731.284 36.2954ZM943.455 194.972C946.851 208.434 936.385 230.449 931.894 214.598C933.097 202.587 937.179 190.429 943.455 194.972ZM891.464 166.153C892.932 167.917 893.661 170.584 892.881 175.059C890.149 176.98 888.988 167.968 891.464 166.154V166.153ZM771.679 85.3495C772.418 86.1988 772.453 88.0032 772.032 90.4387C771.593 90.1248 771.153 89.7876 770.715 89.4625C770.807 87.0103 771.367 86.7531 771.679 85.3483V85.3495ZM801.38 117.564C801.641 121.588 800.968 122.889 799.92 125.256C796.375 123.386 797.425 112.335 801.381 117.564H801.38ZM703.871 54.1391C704.3 54.4474 704.722 54.758 705.148 55.0663C704.767 61.9678 702.186 65.8828 700.609 62.1025C701.097 56.7015 703.314 59.2061 703.871 54.1391H703.871ZM774.75 119.152C773.964 123.838 772.687 126.419 770.88 126.727C770.204 121.401 772.625 117.641 774.751 119.152H774.75ZM803.995 149.809C804.723 149.996 804.608 151.455 805.141 151.928C804.797 157.991 802.669 155.152 801.678 158.003C800.022 154.567 803.401 153.088 803.996 149.811L803.995 149.809ZM778.574 143.885C779.485 144.059 779.566 145.576 780.077 146.402C779.663 149.908 779.193 153.072 777.787 151.117C777.17 147.878 778.365 147.832 778.574 143.885ZM865.678 209.422C865.262 214 864.521 217.18 863.071 217.471C862.167 216.993 862.203 215.345 861.234 214.961C859.869 207.881 863.813 202.977 865.678 209.422ZM785.832 158.759C785.101 163.193 783.484 164.01 782.381 161.267C781.28 150.031 786.389 148.367 785.832 158.759ZM769.693 152.434C769.297 157.227 768.649 160.965 767.096 160.708C765.854 160.027 765.797 157.797 764.93 156.619C764.807 148.261 768.166 148.014 769.693 152.434ZM859.355 219.126C857.171 226.105 852.209 229.612 848.493 224.264C849.696 219.285 855.958 214.445 859.355 219.126ZM711.099 169.527C710.277 154.755 714.166 115.936 721.311 127.952C722.619 143.758 720.546 183.538 711.099 169.527ZM788.639 190.318C790.75 191.999 791.851 199.204 790.752 202.285C788.454 200.571 787.76 196.553 788.638 190.318H788.639ZM784.352 197.271C786.825 198.292 786.053 204.912 783.749 202.412C783.392 200.679 783.679 198.239 784.352 197.271ZM881.517 273.266C879.847 273.456 880.418 272.596 878.639 271.248C878.781 270.134 878.913 269.015 879.049 267.915C880.248 266.529 882.781 268.743 881.517 273.266ZM884.311 271.51C883.674 276.939 887.379 280.125 885.771 283.84C883.973 281.268 884.237 275.785 881.56 274.446C882 271.191 882.751 269.403 884.311 271.51ZM752.39 180.436C751.796 185.207 750.791 188.34 748.604 186.707C747.849 181.689 750.628 175.639 752.39 180.436ZM765.524 220.884C766.44 222.615 766.645 227.968 765.461 229.831C762.819 229.436 764.337 221.797 765.524 220.884ZM754.732 215.194C755.932 216.581 756.439 218.917 756.259 222.161C755.72 225.748 754.678 227.062 753.032 225.625C752.83 221.961 753.384 216.265 754.732 215.194Z" fill="#E5ECF4"/>
<path fill-rule="evenodd" clip-rule="evenodd" d="M846.388 225.734C845.874 226.217 846.479 227.86 845.803 226.997C845.953 230.882 847.344 230.403 847.784 232.69C836.922 216.519 826.153 197.297 815.492 177.769C804.445 157.539 791.033 136.109 782.316 107.675C782.998 106.656 782.665 109.685 783.417 108.053C783.039 105.159 782.313 102.76 781.655 99.7079C781.021 96.7714 780.778 92.6516 780.185 89.5894C779.54 86.2611 778.544 84.0893 779.523 77.8257C778.763 75.5059 779.288 70.9743 778.565 68.5977C779.454 65.2393 779.401 63.2824 779.885 59.4922C780.205 59.5979 779.836 60.8346 780.251 60.1222C780.533 57.5297 780.138 56.1049 780.837 52.7922C780.983 53.8051 781.124 54.8292 781.278 55.8244C781.951 53.1695 780.918 52.3191 781.862 50.0104C782.2 51.0044 782.494 50.1406 783.255 48.6223C790.825 82.158 802.608 102.68 813.572 125.164C821.527 141.479 828.645 152.671 837.35 167.68C843.851 178.888 850.775 190.043 856.873 202.098C864.884 217.938 872.514 229.155 878.526 249.291C878.165 251.605 878.363 252.947 878.014 255.233C875.141 265.329 872.853 263.27 871.193 263.195C870.207 263.152 868.891 263.88 868.112 263.192C865.724 261.077 864.698 256.567 862.461 253.444C860.273 250.396 858.299 247.556 856.516 243.957C855.908 242.728 855.014 242.977 854.901 240.415C852.541 239.539 851.265 233.38 849.323 230.036C848.901 229.305 848.032 230.089 847.636 229.406C847.179 228.611 846.731 226.466 846.462 225.863C846.438 225.818 846.413 225.775 846.388 225.734ZM852.554 240.917C852.14 241.957 851.795 241.319 851.747 240.282C852.18 239.764 852.061 241.009 852.554 240.917ZM862.536 261.922C859.216 255.471 856.141 249.689 852.847 242.938C853.042 242.402 853.348 241.876 853.141 242.687C856.633 249.195 860.639 254.146 862.536 261.922ZM850.939 238.891C852.985 237.113 850.628 242.078 850.866 239.523C850.864 239.551 850.821 238.99 850.939 238.891ZM847.856 233.575C848.264 233.891 848.897 236.221 849.179 235.097C848.837 234.247 848.254 232.785 847.856 233.575Z" fill="#D2DCE8"/>
<path fill-rule="evenodd" clip-rule="evenodd" d="M766.265 45.6068C766.402 46.7311 766.841 46.6131 766.614 47.2765C767.666 49.1288 767.523 46.543 768.139 47.0539C763.863 56.4221 758.795 64.0706 753.655 71.4774C748.323 79.1592 742.782 90.2517 735.137 90.0168C734.831 88.3482 735.687 90.4788 735.208 88.375C734.412 87.4978 733.765 87.4677 732.934 86.9835C732.134 86.5116 730.989 84.7828 730.152 84.1862C729.241 83.5428 728.667 84.0905 726.878 79.2093C726.252 79.2817 724.964 76.0591 724.317 76.0458C723.345 72.8232 722.797 71.9037 721.715 69.1398C721.733 68.6512 722.094 69.9112 721.882 68.8493C721.142 67.0382 720.753 66.9692 719.799 64.0895C720.079 64.3633 720.366 64.6405 720.639 64.911C719.87 62.4109 719.661 63.7077 718.982 60.9337C719.253 60.8781 719 59.9408 718.548 57.8759C727.759 62.4109 733.15 53.3543 739.17 46.7879C743.529 42.0347 746.495 36.0349 750.507 29.4451C753.502 24.5217 756.493 18.908 759.742 15.1968C764.007 10.3391 767.041 3.63348 772.482 4.62306C773.106 6.50427 773.467 6.90945 774.084 8.75282C776.803 19.1418 776.252 21.8401 776.234 24.574C776.225 26.2036 776.426 28.8061 776.242 29.7323C775.68 32.5619 774.471 31.8038 773.639 33.8398C772.828 35.8212 772.074 37.5721 771.111 38.5885C770.785 38.938 770.86 40.5699 770.166 39.3532C769.948 42.8229 768.294 41.6095 767.403 43.0377C767.208 43.3438 767.43 45.2239 767.247 45.5144C767.036 45.8439 766.46 45.4287 766.297 45.5512L766.265 45.6068H766.265ZM770.323 43.5586C770.606 44.8187 770.439 45.0458 770.158 44.5649C770.012 43.552 770.351 44.4324 770.323 43.5586ZM775.925 38.3669C774.205 40.3728 772.667 42.352 770.867 44.1686C770.719 43.552 770.575 42.7538 770.796 43.542C772.528 41.26 773.838 37.2594 775.925 38.3669ZM769.788 45.1549C769.287 40.7613 770.655 47.4146 769.96 45.6224C769.969 45.6436 769.817 45.402 769.788 45.1549ZM768.378 47.4179C768.459 46.9059 769.085 47.1174 768.776 46.0321C768.549 46.1411 768.16 46.3215 768.377 47.4179H768.378ZM887.063 -120.835C886.992 -119.467 887.932 -120.17 887.258 -118.987C888.839 -117.734 889.347 -121.107 890.451 -121.181C878.772 -102.963 865.842 -86.6504 852.782 -71.1309C839.266 -55.0459 823.865 -34.7121 808.351 -28.6177C808.342 -30.5835 809.302 -28.4574 809.1 -30.8618C807.801 -31.3682 806.499 -30.874 804.988 -30.8417C803.535 -30.8061 801.856 -32.1797 800.383 -32.2944C798.779 -32.4313 797.413 -31.2703 795.61 -36.3373C794.324 -35.7685 792.919 -39.0401 791.633 -38.5748C790.87 -42.0945 790.113 -42.8993 788.966 -45.7356C789.18 -46.3901 789.439 -44.9998 789.403 -46.2432C788.593 -48.0743 787.845 -47.8884 786.995 -50.9696C787.453 -50.816 787.911 -50.659 788.366 -50.5054C787.748 -53.2271 786.865 -51.3726 786.526 -54.5194C787.08 -54.791 786.92 -55.8374 786.771 -58.2195C803.397 -58.8963 817.502 -75.4788 831.75 -89.8718C842.1 -100.33 850.039 -111.381 860.188 -124.564C867.77 -134.398 875.49 -145.428 883.131 -154.316C893.172 -166.038 901.173 -178.936 911.846 -184.89C912.576 -183.159 913.193 -183.091 913.918 -181.399C916.489 -170.88 914.589 -166.429 913.761 -162.643C913.272 -160.394 912.923 -157.088 912.279 -155.56C910.307 -150.872 908.044 -150.332 905.743 -146.42C903.497 -142.593 901.419 -139.223 899.145 -136.583C898.37 -135.683 898.026 -133.537 896.976 -134.31C895.475 -129.245 892.447 -128.85 890.19 -125.772C889.697 -125.101 889.567 -122.808 889.106 -122.18C888.57 -121.453 887.519 -121.311 887.147 -120.95L887.063 -120.835ZM896.013 -128.738C896.21 -127.37 895.793 -126.844 895.365 -127.152C895.38 -128.352 895.805 -127.577 896.013 -128.738ZM909.08 -143.254C904.953 -138.147 901.188 -133.432 896.943 -128.594C896.831 -129.255 896.779 -130.168 896.99 -129.366C901.24 -134.75 905.131 -141.945 909.08 -143.253V-143.254ZM894.424 -125.875C894.749 -131.257 895.507 -123.877 894.634 -125.45C894.643 -125.435 894.406 -125.565 894.424 -125.875ZM890.831 -120.992C891.154 -121.793 892.373 -122.294 892.077 -123.393C891.578 -122.958 890.722 -122.215 890.831 -120.992ZM871.275 21.2078C871.218 22.5469 872.091 21.9759 871.47 23.0579C872.953 24.4949 873.41 21.2446 874.442 21.3236C863.622 37.6612 851.733 52.4104 839.781 66.7878C827.399 81.685 813.506 101.194 799.194 107.287C799.132 105.339 800.084 107.439 799.831 105.06C798.605 104.57 797.402 105.063 795.992 105.112C794.634 105.161 793.024 103.819 791.639 103.724C790.135 103.618 788.891 104.804 787.055 99.8248C785.865 100.427 784.454 97.2267 783.26 97.7232C782.44 94.2613 781.703 93.4887 780.543 90.7126C780.727 90.0636 781.009 91.4294 780.938 90.2016C780.122 88.4095 779.425 88.6232 778.535 85.5966C778.97 85.7379 779.407 85.896 779.84 86.0107C779.178 83.3391 778.4 85.2047 777.987 82.0991C778.503 81.813 778.322 80.78 778.115 78.4301C793.764 77.1545 806.586 60.7834 819.753 47.0907C829.305 37.1547 836.613 26.719 846.03 14.5557C853.063 5.4724 860.269 -4.55815 867.428 -12.3791C876.834 -22.6501 884.382 -34.1912 894.444 -38.1562C895.123 -36.3195 895.702 -36.1414 896.376 -34.3426C898.748 -23.4961 896.96 -19.442 896.179 -15.8599C895.715 -13.7282 895.383 -10.5302 894.779 -9.1443C892.925 -4.89766 890.816 -4.70953 888.664 -1.24876C886.56 2.13631 884.63 5.14958 882.509 7.4037C881.786 8.17065 881.471 10.2333 880.487 9.31496C879.096 14.0625 876.274 14.0492 874.174 16.7641C873.716 17.353 873.608 19.6027 873.179 20.1559C872.682 20.7904 871.698 20.7937 871.356 21.1065C871.328 21.1399 871.302 21.1722 871.275 21.2078ZM879.604 14.6614C879.794 16.0361 879.406 16.4981 879.006 16.1319C879.014 14.9508 879.414 15.7757 879.604 14.6614ZM891.785 2.43575C887.928 6.74583 884.427 10.8222 880.473 14.9375C880.366 14.2696 880.314 13.3646 880.514 14.1839C884.471 9.52536 888.092 3.04129 891.785 2.43575ZM878.133 17.2606C878.414 11.9932 879.152 19.3867 878.33 17.7081C878.339 17.7248 878.116 17.5634 878.133 17.2606ZM874.797 21.5674C875.098 20.8238 876.233 20.501 875.952 19.3756C875.487 19.734 874.69 20.344 874.797 21.5674Z" fill="#4AB19D"/>
</g>
<defs>
<clipPath id="clip0">
<rect y="-77" width="1384" height="669" fill="white"/>
</clipPath>
</defs>
</svg>
