<svg width="48" height="48" viewBox="0 0 48 48" fill="none" xmlns="http://www.w3.org/2000/svg">
<path d="M24 43.5L13.1387 33.3893L14.6667 22.6667C14.6667 21.5853 15.3133 20.6573 16.24 20.24L21.3333 21.3333C21.3333 20.252 21.98 19.324 22.9067 18.9067L27.8613 19.972L28 20V8C28 6.91867 28.6467 5.99067 29.5733 5.57333L34.3893 23.7867L34.6667 24C35.896 24 36.964 26.6667 36.964 26.6667L36.9667 26.6867L24 43.5Z" fill="#EF9645"/>
<path d="M21.3333 25.0373C20.5213 25.7693 20 26.8187 20 28C20 29.004 20.3827 29.9107 20.9933 30.612C20.5387 31.4347 19.6733 32 18.6667 32C17.1947 32 16 30.8053 16 29.3333V21.3333C16 20.9427 16.0893 20.5747 16.24 20.24C16.6573 19.3133 17.5853 18.6667 18.6667 18.6667C20.1387 18.6667 21.3333 19.8613 21.3333 21.3333V25.0373Z" fill="#FFDC5D"/>
<path d="M9.33334 10.6667C9.33334 9.19467 10.528 8 12 8C13.472 8 14.6667 9.19467 14.6667 10.6667V29.3333C14.6667 30.452 15.1707 31.5453 15.9987 32.2947C17.556 33.5747 19.7893 33.6853 21.332 32.292C21.6013 32.0467 21.844 31.776 22.0387 31.468L22.0347 31.464C22.3027 31.6173 22.6667 32 24 32H27.3827C24.9707 33.82 23.3333 37.32 23.3333 41.3333C23.3333 41.7013 23.632 42 24 42C24.368 42 24.6667 41.7013 24.6667 41.3333C24.6667 36.188 27.5827 32 31.1667 32C32.1173 32.1053 32.296 30.6667 31.3333 30.6667H24C22.528 30.6667 21.3333 29.472 21.3333 28C21.3333 26.528 22.528 25.3333 24 25.3333H34.6667C35.9573 25.3333 36.6413 26.128 36.9667 26.6867C37.1347 26.976 37.2133 27.2053 37.2173 27.22L38.6667 32C38.804 32.4467 39.3053 34.4947 39.2147 34.9213C39.2147 41.3333 32.9533 48 25.3333 48C16.6173 48 9.33334 41 9.33334 32C9.34401 32.0093 9.33334 10.6667 9.33334 10.6667Z" fill="#FFDC5D"/>
<path d="M28 24H24C23.5307 24 23.0867 24.096 22.6667 24.2453V20C22.6667 19.6093 22.756 19.2413 22.9067 18.9067C23.324 17.98 24.252 17.3333 25.3333 17.3333C26.8053 17.3333 28 18.528 28 20V24ZM29.3333 24V6.66667C29.3333 6.276 29.4227 5.908 29.5733 5.57333C29.9907 4.64667 30.9187 4 32 4C33.472 4 34.6667 5.19467 34.6667 6.66667V24H29.3333Z" fill="#FFDC5D"/>
</svg>
